# Blender v2.83.5 OBJ File: 'Equipment_Fuel_V01.blend'
# www.blender.org
mtllib Equipment_Fuel_V01.mtl
o Cube.001
v -0.602350 -0.197341 -0.408196
v -0.602350 0.197341 -0.408196
v -0.602350 -0.197341 -0.921845
v -0.602350 0.197341 -0.921845
v 0.602350 -0.197341 -0.408196
v 0.602350 0.197341 -0.408196
v 0.602350 -0.197341 -0.921845
v 0.602350 0.197341 -0.921845
v 0.786199 -0.024280 -0.694120
v 0.786199 0.024280 -0.694120
v 0.786199 -0.024280 -0.991347
v 0.786199 0.024280 -0.991347
v 0.834759 -0.024280 -0.694120
v 0.834759 0.024280 -0.694120
v 0.834759 -0.024280 -0.991347
v 0.834759 0.024280 -0.991347
v 0.786199 -0.024280 -0.646597
v 0.786199 0.024280 -0.646597
v 0.834759 0.024280 -0.646597
v 0.834759 -0.024280 -0.646597
v 0.598451 -0.024280 -0.694120
v 0.598451 0.024280 -0.694120
v 0.598451 -0.024280 -0.646597
v 0.598451 0.024280 -0.646597
v -0.782590 0.024280 -0.694120
v -0.782590 -0.024280 -0.694120
v -0.782590 0.024280 -0.991347
v -0.782590 -0.024280 -0.991347
v -0.831151 0.024280 -0.694120
v -0.831151 -0.024280 -0.694120
v -0.831151 0.024280 -0.991347
v -0.831151 -0.024280 -0.991347
v -0.782590 0.024280 -0.646597
v -0.782590 -0.024280 -0.646597
v -0.831151 -0.024280 -0.646597
v -0.831151 0.024280 -0.646597
v -0.594842 0.024280 -0.694120
v -0.594842 -0.024280 -0.694120
v -0.594842 0.024280 -0.646597
v -0.594842 -0.024280 -0.646597
vt 0.375000 0.000000
vt 0.625000 0.000000
vt 0.625000 0.250000
vt 0.375000 0.250000
vt 0.625000 0.500000
vt 0.375000 0.500000
vt 0.625000 0.750000
vt 0.375000 0.750000
vt 0.625000 1.000000
vt 0.375000 1.000000
vt 0.125000 0.500000
vt 0.125000 0.750000
vt 0.875000 0.500000
vt 0.875000 0.750000
vt 0.375000 0.000000
vt 0.625000 0.000000
vt 0.625000 0.250000
vt 0.375000 0.250000
vt 0.625000 0.500000
vt 0.375000 0.500000
vt 0.625000 0.750000
vt 0.375000 0.750000
vt 0.875000 0.750000
vt 0.875000 0.750000
vt 0.625000 0.750000
vt 0.125000 0.500000
vt 0.125000 0.750000
vt 0.875000 0.500000
vt 0.375000 0.750000
vt 0.625000 1.000000
vt 0.375000 1.000000
vt 0.875000 0.750000
vt 0.875000 0.750000
vt 0.125000 0.750000
vt 0.625000 0.000000
vt 0.375000 0.000000
vt 0.375000 0.000000
vt 0.625000 0.000000
vt 0.625000 1.000000
vt 0.375000 1.000000
vt 0.125000 0.750000
vt 0.125000 0.750000
vt 0.375000 0.000000
vt 0.625000 0.000000
vt 0.625000 0.250000
vt 0.375000 0.250000
vt 0.625000 0.500000
vt 0.375000 0.500000
vt 0.625000 0.750000
vt 0.375000 0.750000
vt 0.875000 0.750000
vt 0.875000 0.750000
vt 0.625000 0.750000
vt 0.125000 0.500000
vt 0.125000 0.750000
vt 0.875000 0.500000
vt 0.375000 0.750000
vt 0.625000 1.000000
vt 0.375000 1.000000
vt 0.875000 0.750000
vt 0.875000 0.750000
vt 0.125000 0.750000
vt 0.625000 0.000000
vt 0.375000 0.000000
vt 0.375000 0.000000
vt 0.625000 0.000000
vt 0.625000 1.000000
vt 0.375000 1.000000
vt 0.125000 0.750000
vt 0.125000 0.750000
vn -1.0000 0.0000 0.0000
vn 0.0000 0.0000 -1.0000
vn 1.0000 0.0000 0.0000
vn 0.0000 0.0000 1.0000
vn 0.0000 -1.0000 0.0000
vn 0.0000 1.0000 0.0000
usemtl None
s off
f 1/1/1 2/2/1 4/3/1 3/4/1
f 3/4/2 4/3/2 8/5/2 7/6/2
f 7/6/3 8/5/3 6/7/3 5/8/3
f 5/8/4 6/7/4 2/9/4 1/10/4
f 3/11/5 7/6/5 5/8/5 1/12/5
f 8/5/6 4/13/6 2/14/6 6/7/6
f 9/15/1 10/16/1 12/17/1 11/18/1
f 11/18/2 12/17/2 16/19/2 15/20/2
f 15/20/3 16/19/3 14/21/3 13/22/3
f 14/21/6 10/23/6 18/24/6 19/25/6
f 11/26/5 15/20/5 13/22/5 9/27/5
f 16/19/6 12/28/6 10/23/6 14/21/6
f 20/29/4 19/25/4 18/30/4 17/31/4
f 13/22/3 14/21/3 19/25/3 20/29/3
f 18/24/6 10/23/6 22/32/6 24/33/6
f 9/27/5 13/22/5 20/29/5 17/34/5
f 22/35/1 21/36/1 23/37/1 24/38/1
f 10/16/2 9/15/2 21/36/2 22/35/2
f 17/31/4 18/30/4 24/39/4 23/40/4
f 9/27/5 17/34/5 23/41/5 21/42/5
f 25/43/3 26/44/3 28/45/3 27/46/3
f 27/46/2 28/45/2 32/47/2 31/48/2
f 31/48/1 32/47/1 30/49/1 29/50/1
f 30/49/5 26/51/5 34/52/5 35/53/5
f 27/54/6 31/48/6 29/50/6 25/55/6
f 32/47/5 28/56/5 26/51/5 30/49/5
f 36/57/4 35/53/4 34/58/4 33/59/4
f 29/50/1 30/49/1 35/53/1 36/57/1
f 34/52/5 26/51/5 38/60/5 40/61/5
f 25/55/6 29/50/6 36/57/6 33/62/6
f 38/63/3 37/64/3 39/65/3 40/66/3
f 26/44/2 25/43/2 37/64/2 38/63/2
f 33/59/4 34/58/4 40/67/4 39/68/4
f 25/55/6 33/62/6 39/69/6 37/70/6
