# Blender v2.83.5 OBJ File: 'Ship_Alien_V02.blend'
# www.blender.org
mtllib AlienShip.mtl
o Cube.001
v -1.000000 -0.800000 1.000000
v -1.000000 0.800000 1.000000
v -1.000000 -0.800000 -1.000000
v -1.000000 0.800000 -1.000000
v 1.000000 -0.800000 1.000000
v 1.000000 0.800000 1.000000
v 1.000000 -0.800000 -1.000000
v 1.000000 0.800000 -1.000000
v 0.300000 -0.200000 -0.987790
v 0.300000 0.200000 -0.987790
v 0.300000 -0.200000 -1.187790
v 0.300000 0.200000 -1.187790
v 0.700000 -0.200000 -0.987790
v 0.700000 0.200000 -0.987790
v 0.700000 -0.200000 -1.187790
v 0.700000 0.200000 -1.187790
v -0.700000 -0.200000 -0.987790
v -0.700000 0.200000 -0.987790
v -0.700000 -0.200000 -1.187790
v -0.700000 0.200000 -1.187790
v -0.300000 -0.200000 -0.987790
v -0.300000 0.200000 -0.987790
v -0.300000 -0.200000 -1.187790
v -0.300000 0.200000 -1.187790
v -0.500000 -0.500000 1.236557
v -0.500000 0.500000 1.236557
v -0.500000 -0.500000 0.989282
v -0.500000 0.500000 0.989282
v 0.500000 -0.500000 1.236557
v 0.500000 0.500000 1.236557
v 0.500000 -0.500000 0.989282
v 0.500000 0.500000 0.989282
v -1.300000 -0.200000 0.900000
v -1.300000 0.200000 0.900000
v -1.300000 -0.200000 -0.900000
v -1.300000 0.200000 -0.900000
v -0.900000 -0.200000 0.900000
v -0.900000 0.200000 0.900000
v -0.900000 -0.200000 -0.900000
v -0.900000 0.200000 -0.900000
v -1.200000 -0.100000 1.600000
v -1.200000 0.100000 1.600000
v -1.200000 -0.100000 0.800000
v -1.200000 0.100000 0.800000
v -1.000000 -0.100000 1.600000
v -1.000000 0.100000 1.600000
v -1.000000 -0.100000 0.800000
v -1.000000 0.100000 0.800000
v 0.900000 -0.200000 0.900000
v 0.900000 0.200000 0.900000
v 0.900000 -0.200000 -0.900000
v 0.900000 0.200000 -0.900000
v 1.300000 -0.200000 0.900000
v 1.300000 0.200000 0.900000
v 1.300000 -0.200000 -0.900000
v 1.300000 0.200000 -0.900000
v 1.000000 -0.100000 1.600000
v 1.000000 0.100000 1.600000
v 1.000000 -0.100000 0.800000
v 1.000000 0.100000 0.800000
v 1.200000 -0.100000 1.600000
v 1.200000 0.100000 1.600000
v 1.200000 -0.100000 0.800000
v 1.200000 0.100000 0.800000
vt 0.368938 0.675419
vt 0.631061 0.359064
vt 0.631061 0.675419
vt 0.654653 0.330592
vt 0.916776 0.014236
vt 0.916776 0.330592
vt 0.368938 0.330592
vt 0.631061 0.014236
vt 0.631062 0.330592
vt 0.916776 0.359064
vt 0.654653 0.675419
vt 0.654653 0.359064
vt 0.014744 0.675419
vt 0.342398 0.359064
vt 0.342398 0.675419
vt 0.342398 0.330591
vt 0.014744 0.014236
vt 0.342398 0.014236
vt 0.501474 0.864916
vt 0.534240 0.928187
vt 0.501474 0.928187
vt 0.782766 0.824739
vt 0.717235 0.761468
vt 0.782766 0.761468
vt 0.430046 0.864916
vt 0.462811 0.928187
vt 0.430046 0.928187
vt 0.144332 0.864916
vt 0.177097 0.928187
vt 0.144332 0.928187
vt 0.787189 0.830433
vt 0.819954 0.893705
vt 0.787189 0.893705
vt 0.680046 0.830433
vt 0.712811 0.893705
vt 0.680046 0.893705
vt 0.782766 0.755774
vt 0.717235 0.692502
vt 0.782766 0.692502
vt 0.108617 0.864916
vt 0.141383 0.928187
vt 0.108617 0.928187
vt 0.072903 0.864916
vt 0.105668 0.928187
vt 0.072903 0.928187
vt 0.465760 0.864916
vt 0.498526 0.928187
vt 0.465760 0.928187
vt 0.430394 0.696773
vt 0.470905 0.854951
vt 0.430394 0.854951
vt 0.931520 0.297532
vt 0.997051 0.012812
vt 0.997051 0.297532
vt 0.603373 0.854951
vt 0.562863 0.696773
vt 0.603373 0.696773
vt 0.007372 0.696773
vt 0.171199 0.854951
vt 0.007372 0.854951
vt 0.515061 0.854951
vt 0.474551 0.696773
vt 0.515061 0.696773
vt 0.559217 0.854951
vt 0.518707 0.696773
vt 0.559217 0.696773
vt 0.824378 0.755774
vt 0.889908 0.692502
vt 0.889908 0.755774
vt 0.787189 0.821892
vt 0.819954 0.695350
vt 0.819954 0.821892
vt 0.608145 0.830433
vt 0.673676 0.893705
vt 0.608145 0.893705
vt 0.181520 0.987187
vt 0.247051 0.702467
vt 0.247051 0.987187
vt 0.997051 0.633502
vt 0.931520 0.918222
vt 0.931520 0.633502
vt 0.931520 0.607877
vt 0.997051 0.323157
vt 0.997051 0.607877
vt 0.537189 0.897975
vt 0.569954 0.929611
vt 0.537189 0.929611
vt 0.712811 0.695350
vt 0.680046 0.821892
vt 0.680046 0.695350
vt 0.858617 0.890857
vt 0.891383 0.764315
vt 0.891383 0.890857
vt 0.606670 0.821892
vt 0.639436 0.695350
vt 0.639436 0.821892
vt 0.002949 0.928187
vt 0.068480 0.864916
vt 0.068480 0.928187
vt 0.822903 0.890857
vt 0.855668 0.764315
vt 0.855669 0.890857
vt 0.717235 0.830434
vt 0.782765 0.893705
vt 0.717235 0.893705
vt 0.425623 0.702468
vt 0.360092 0.987188
vt 0.360092 0.702468
vt 0.252949 0.987187
vt 0.318480 0.702467
vt 0.318480 0.987187
vt 0.537189 0.863493
vt 0.569954 0.895128
vt 0.537189 0.895128
vt 0.355668 0.833281
vt 0.322903 0.959823
vt 0.322903 0.833281
vt 0.644332 0.821892
vt 0.677097 0.695350
vt 0.677097 0.821892
vt 0.322903 0.821892
vt 0.355668 0.695350
vt 0.355668 0.821892
vt 0.368938 0.359064
vt 0.654653 0.014236
vt 0.368938 0.014236
vt 0.916776 0.675419
vt 0.014744 0.359064
vt 0.014744 0.330592
vt 0.534240 0.864916
vt 0.717235 0.824739
vt 0.462811 0.864916
vt 0.177097 0.864916
vt 0.819954 0.830433
vt 0.712811 0.830433
vt 0.717235 0.755774
vt 0.141383 0.864916
vt 0.105668 0.864916
vt 0.498526 0.864916
vt 0.470905 0.696773
vt 0.931520 0.012812
vt 0.562863 0.854951
vt 0.171199 0.696773
vt 0.474551 0.854951
vt 0.518707 0.854951
vt 0.824378 0.692502
vt 0.787189 0.695350
vt 0.673676 0.830433
vt 0.181520 0.702467
vt 0.997051 0.918222
vt 0.931520 0.323157
vt 0.569954 0.897975
vt 0.712811 0.821892
vt 0.858617 0.764315
vt 0.606670 0.695350
vt 0.002949 0.864916
vt 0.822903 0.764315
vt 0.782765 0.830434
vt 0.425623 0.987188
vt 0.252949 0.702467
vt 0.569954 0.863493
vt 0.355668 0.959823
vt 0.644332 0.695350
vt 0.322903 0.695350
vn -1.0000 0.0000 0.0000
vn 0.0000 0.0000 -1.0000
vn 1.0000 0.0000 0.0000
vn 0.0000 0.0000 1.0000
vn 0.0000 -1.0000 0.0000
vn 0.0000 1.0000 0.0000
usemtl Material
s off
f 2/1/1 3/2/1 1/3/1
f 4/4/2 7/5/2 3/6/2
f 8/7/3 5/8/3 7/9/3
f 6/10/4 1/11/4 5/12/4
f 7/13/5 1/14/5 3/15/5
f 4/16/6 6/17/6 8/18/6
f 10/19/1 11/20/1 9/21/1
f 12/22/2 15/23/2 11/24/2
f 16/25/3 13/26/3 15/27/3
f 18/28/1 19/29/1 17/30/1
f 15/31/5 9/32/5 11/33/5
f 12/34/6 14/35/6 16/36/6
f 20/37/2 23/38/2 19/39/2
f 24/40/3 21/41/3 23/42/3
f 23/43/5 17/44/5 19/45/5
f 20/46/6 22/47/6 24/48/6
f 26/49/1 27/50/1 25/51/1
f 34/52/1 35/53/1 33/54/1
f 32/55/3 29/56/3 31/57/3
f 30/58/4 25/59/4 29/60/4
f 31/61/5 25/62/5 27/63/5
f 28/64/6 30/65/6 32/66/6
f 36/67/2 39/68/2 35/69/2
f 42/70/1 43/71/1 41/72/1
f 38/73/4 33/74/4 37/75/4
f 39/76/5 33/77/5 35/78/5
f 36/79/6 38/80/6 40/81/6
f 56/82/3 53/83/3 55/84/3
f 46/85/4 41/86/4 45/87/4
f 47/88/5 41/89/5 43/90/5
f 44/91/6 46/92/6 48/93/6
f 48/94/3 45/95/3 47/96/3
f 52/97/2 55/98/2 51/99/2
f 58/100/1 59/101/1 57/102/1
f 54/103/4 49/104/4 53/105/4
f 55/106/5 49/107/5 51/108/5
f 52/109/6 54/110/6 56/111/6
f 62/112/4 57/113/4 61/114/4
f 63/115/5 57/116/5 59/117/5
f 60/118/6 62/119/6 64/120/6
f 64/121/3 61/122/3 63/123/3
f 2/1/1 4/124/1 3/2/1
f 4/4/2 8/125/2 7/5/2
f 8/7/3 6/126/3 5/8/3
f 6/10/4 2/127/4 1/11/4
f 7/13/5 5/128/5 1/14/5
f 4/16/6 2/129/6 6/17/6
f 10/19/1 12/130/1 11/20/1
f 12/22/2 16/131/2 15/23/2
f 16/25/3 14/132/3 13/26/3
f 18/28/1 20/133/1 19/29/1
f 15/31/5 13/134/5 9/32/5
f 12/34/6 10/135/6 14/35/6
f 20/37/2 24/136/2 23/38/2
f 24/40/3 22/137/3 21/41/3
f 23/43/5 21/138/5 17/44/5
f 20/46/6 18/139/6 22/47/6
f 26/49/1 28/140/1 27/50/1
f 34/52/1 36/141/1 35/53/1
f 32/55/3 30/142/3 29/56/3
f 30/58/4 26/143/4 25/59/4
f 31/61/5 29/144/5 25/62/5
f 28/64/6 26/145/6 30/65/6
f 36/67/2 40/146/2 39/68/2
f 42/70/1 44/147/1 43/71/1
f 38/73/4 34/148/4 33/74/4
f 39/76/5 37/149/5 33/77/5
f 36/79/6 34/150/6 38/80/6
f 56/82/3 54/151/3 53/83/3
f 46/85/4 42/152/4 41/86/4
f 47/88/5 45/153/5 41/89/5
f 44/91/6 42/154/6 46/92/6
f 48/94/3 46/155/3 45/95/3
f 52/97/2 56/156/2 55/98/2
f 58/100/1 60/157/1 59/101/1
f 54/103/4 50/158/4 49/104/4
f 55/106/5 53/159/5 49/107/5
f 52/109/6 50/160/6 54/110/6
f 62/112/4 58/161/4 57/113/4
f 63/115/5 61/162/5 57/116/5
f 60/118/6 58/163/6 62/119/6
f 64/121/3 62/164/3 61/122/3
