# Blender v2.92.0 OBJ File: 'PoliceShip_V01.blend'
# www.blender.org
mtllib PoliceShip.mtl
o Cube
v 0.500000 0.250000 0.750000
v 0.500000 -0.250000 0.750000
v -0.500000 0.250000 0.750000
v -0.500000 -0.250000 0.750000
v 0.500000 0.250000 -1.250000
v 0.500000 -0.250000 -1.250000
v -0.500000 0.250000 -1.250000
v -0.500000 -0.250000 -1.250000
v -0.000000 0.000000 1.250000
v 1.500000 0.050000 -0.050000
v 0.500000 0.050000 0.250000
v 0.500000 0.050000 -1.050000
v 1.500000 0.050000 1.250000
v -0.500000 0.050000 -1.050000
v -1.500000 0.050000 1.250000
v -1.500000 0.050000 -0.050000
v -0.500000 0.050000 0.250000
v -1.500000 -0.050000 -0.050000
v -0.500000 -0.050000 -1.050000
v -1.500000 -0.050000 1.250000
v -0.500000 -0.050000 0.250000
v 1.500000 -0.050000 1.250000
v 1.500000 -0.050000 -0.050000
v 0.500000 -0.050000 0.250000
v 0.500000 -0.050000 -1.050000
vt 0.458201 0.986688
vt 0.229101 0.531478
vt 0.458201 0.531478
vt 0.839630 0.916403
vt 0.954180 0.458201
vt 0.954180 0.916403
vt 0.698875 0.760579
vt 0.813425 0.531478
vt 0.813425 0.760579
vt 0.229101 0.986688
vt 0.000000 0.531478
vt 0.229101 0.531478
vt 0.572752 0.760579
vt 0.572752 0.875129
vt 0.458201 0.817854
vt 0.839630 0.458201
vt 0.954180 0.000000
vt 0.954180 0.458201
vt 0.839630 0.208537
vt 0.629722 0.000000
vt 0.629722 0.322941
vt 0.687302 0.760579
vt 0.687302 0.875129
vt 0.572752 0.817854
vt 0.578538 0.531478
vt 0.578538 0.760579
vt 0.458201 0.646029
vt 0.698875 0.531478
vt 0.698875 0.760579
vt 0.578538 0.646029
vt 0.209907 0.322941
vt 0.209907 0.000000
vt 0.000000 0.208537
vt 0.629722 0.322941
vt 0.629722 0.000000
vt 0.419815 0.208537
vt 0.209907 0.322941
vt 0.419815 0.531478
vt 0.419815 0.208537
vt 0.721785 0.760579
vt 0.721785 0.989680
vt 0.744695 0.989680
vt 0.954180 0.000000
vt 0.954180 0.297831
vt 0.977090 0.297831
vt 0.977090 0.000000
vt 0.977090 0.229101
vt 1.000000 0.229101
vt 0.977090 0.526932
vt 1.000000 0.526932
vt 0.698875 0.760579
vt 0.698875 0.989680
vt 0.721785 0.989680
vt 0.954180 0.526932
vt 0.977090 0.526932
vt 0.229101 0.986688
vt 0.839630 0.458201
vt 0.698875 0.531478
vt 0.000000 0.986688
vt 0.839630 0.000000
vt 0.839630 0.531478
vt 0.000000 0.531478
vt 0.419815 0.531478
vt 0.209907 0.000000
vt 0.744695 0.760579
vt 0.977090 0.000000
vt 1.000000 0.000000
vt 0.721785 0.760579
vn 0.0000 1.0000 0.0000
vn -1.0000 0.0000 -0.0000
vn 0.0000 0.0000 -1.0000
vn 0.0000 -1.0000 0.0000
vn -0.7071 0.0000 0.7071
vn 1.0000 0.0000 0.0000
vn 0.7071 0.0000 0.7071
vn 0.0000 -0.8944 0.4472
vn 0.0000 0.8944 0.4472
vn 0.7071 0.0000 -0.7071
vn -0.7071 0.0000 -0.7071
usemtl Material
s off
f 5/1/1 3/2/1 1/3/1
f 3/4/2 8/5/2 4/6/2
f 7/7/3 6/8/3 8/9/3
f 2/10/4 8/11/4 6/12/4
f 3/13/5 4/14/5 9/15/5
f 5/16/6 2/17/6 6/18/6
f 16/19/1 15/20/1 17/21/1
f 2/22/7 1/23/7 9/24/7
f 4/25/8 2/26/8 9/27/8
f 1/28/9 3/29/9 9/30/9
f 10/31/1 12/32/1 11/33/1
f 18/34/4 19/35/4 21/36/4
f 24/37/4 25/38/4 23/39/4
f 13/40/5 11/41/5 24/42/5
f 15/43/2 16/44/2 18/45/2
f 12/46/10 10/47/10 23/48/10
f 10/47/6 13/49/6 22/50/6
f 17/51/7 15/52/7 20/53/7
f 16/44/11 14/54/11 19/55/11
f 5/1/1 7/56/1 3/2/1
f 3/4/2 7/57/2 8/5/2
f 7/7/3 5/58/3 6/8/3
f 2/10/4 4/59/4 8/11/4
f 5/16/6 1/60/6 2/17/6
f 16/19/1 17/21/1 14/61/1
f 10/31/1 11/33/1 13/62/1
f 18/34/4 21/36/4 20/63/4
f 24/37/4 23/39/4 22/64/4
f 13/40/5 24/42/5 22/65/5
f 15/43/2 18/45/2 20/66/2
f 12/46/10 23/48/10 25/67/10
f 10/47/6 22/50/6 23/48/6
f 17/51/7 20/53/7 21/68/7
f 16/44/11 19/55/11 18/45/11
