# Blender 4.3.2
# www.blender.org
o Cylinder
v -0.000000 0.250000 -0.500000
v -0.000000 0.250000 0.250000
v 0.237764 0.077254 -0.500000
v 0.237764 0.077254 0.250000
v 0.146946 -0.202254 -0.500000
v 0.146946 -0.202254 0.250000
v -0.146946 -0.202254 -0.500000
v -0.146946 -0.202254 0.250000
v -0.237764 0.077254 -0.500000
v -0.237764 0.077254 0.250000
v 0.118882 0.038627 1.000000
v -0.000000 0.125000 1.000000
v 0.073473 -0.101127 1.000000
v -0.073473 -0.101127 1.000000
v -0.118882 0.038627 1.000000
v -0.000000 0.375000 -0.600000
v 0.356646 0.115881 -0.600000
v 0.220419 -0.303381 -0.600000
v -0.220419 -0.303381 -0.600000
v -0.356646 0.115881 -0.600000
v -0.000000 0.375000 -1.000000
v 0.356646 0.115881 -1.000000
v 0.220419 -0.303381 -1.000000
v -0.220419 -0.303381 -1.000000
v -0.356646 0.115881 -1.000000
v -0.000000 0.250000 -1.100000
v 0.237764 0.077254 -1.100000
v 0.146946 -0.202254 -1.100000
v -0.146946 -0.202254 -1.100000
v -0.237764 0.077254 -1.100000
v -0.000000 0.900000 -0.800000
v -0.000000 0.900000 -0.050000
v 0.190211 0.761803 -0.800000
v 0.190211 0.761803 -0.050000
v 0.117557 0.538197 -0.800000
v 0.117557 0.538197 -0.050000
v -0.117557 0.538197 -0.800000
v -0.117557 0.538197 -0.050000
v -0.190211 0.761803 -0.800000
v -0.190211 0.761803 -0.050000
v 0.095106 0.730902 0.700000
v -0.000000 0.800000 0.700000
v 0.058779 0.619098 0.700000
v -0.058779 0.619098 0.700000
v -0.095106 0.730902 0.700000
v 0.475000 -0.300000 -0.800000
v 0.475000 -0.300000 -0.050000
v 0.665211 -0.438197 -0.800000
v 0.665211 -0.438197 -0.050000
v 0.592557 -0.661803 -0.800000
v 0.592557 -0.661803 -0.050000
v 0.357443 -0.661803 -0.800000
v 0.357443 -0.661803 -0.050000
v 0.284789 -0.438197 -0.800000
v 0.284789 -0.438197 -0.050000
v 0.570106 -0.469098 0.700000
v 0.475000 -0.400000 0.700000
v 0.533779 -0.580902 0.700000
v 0.416221 -0.580902 0.700000
v 0.379894 -0.469098 0.700000
v -0.475000 -0.300000 -0.800000
v -0.475000 -0.300000 -0.050000
v -0.284789 -0.438197 -0.800000
v -0.284789 -0.438197 -0.050000
v -0.357443 -0.661803 -0.800000
v -0.357443 -0.661803 -0.050000
v -0.592557 -0.661803 -0.800000
v -0.592557 -0.661803 -0.050000
v -0.665211 -0.438197 -0.800000
v -0.665211 -0.438197 -0.050000
v -0.379894 -0.469098 0.700000
v -0.475000 -0.400000 0.700000
v -0.416221 -0.580902 0.700000
v -0.533779 -0.580902 0.700000
v -0.570106 -0.469098 0.700000
v -0.000000 0.800000 -0.900000
v 0.095106 0.730902 -0.900000
v 0.058779 0.619098 -0.900000
v -0.058779 0.619098 -0.900000
v -0.095106 0.730902 -0.900000
v 0.475000 -0.400000 -0.900000
v 0.570106 -0.469098 -0.900000
v 0.533779 -0.580902 -0.900000
v 0.416221 -0.580902 -0.900000
v 0.379894 -0.469098 -0.900000
v -0.475000 -0.400000 -0.900000
v -0.379894 -0.469098 -0.900000
v -0.416221 -0.580902 -0.900000
v -0.533779 -0.580902 -0.900000
v -0.570106 -0.469098 -0.900000
v -0.100000 0.158315 -0.250000
v -0.100000 0.558315 -0.250000
v -0.100000 0.158315 -0.450000
v -0.100000 0.558315 -0.450000
v 0.100000 0.158315 -0.250000
v 0.100000 0.558315 -0.250000
v 0.100000 0.158315 -0.450000
v 0.100000 0.558315 -0.450000
v -0.472791 -0.332889 -0.250000
v -0.189948 -0.050046 -0.250000
v -0.472791 -0.332889 -0.450000
v -0.189948 -0.050046 -0.450000
v -0.331370 -0.474310 -0.250000
v -0.048527 -0.191467 -0.250000
v -0.331370 -0.474310 -0.450000
v -0.048527 -0.191467 -0.450000
v 0.336288 -0.461194 -0.250000
v 0.053445 -0.178351 -0.250000
v 0.336288 -0.461194 -0.450000
v 0.053445 -0.178351 -0.450000
v 0.477709 -0.319773 -0.250000
v 0.194866 -0.036930 -0.250000
v 0.477709 -0.319773 -0.450000
v 0.194866 -0.036930 -0.450000
vn 0.5878 0.8090 -0.0000
vn 0.9511 -0.3090 -0.0000
vn -0.0000 -1.0000 -0.0000
vn 0.9425 -0.3062 0.1336
vn -0.9511 -0.3090 -0.0000
vn -0.5878 0.8090 -0.0000
vn -0.0000 -0.7031 0.7111
vn -0.0000 -0.0000 1.0000
vn -0.5825 0.8018 0.1336
vn 0.5825 0.8018 0.1336
vn -0.0000 -0.9910 0.1336
vn -0.9425 -0.3062 0.1336
vn -0.6687 -0.2173 0.7111
vn 0.6687 -0.2173 0.7111
vn -0.4133 0.5688 0.7111
vn 0.4133 0.5688 0.7111
vn -0.4133 0.5688 -0.7111
vn -0.0000 -0.0000 -1.0000
vn -0.0000 -0.7031 -0.7111
vn 0.4133 0.5688 -0.7111
vn -0.6687 -0.2173 -0.7111
vn 0.6687 -0.2173 -0.7111
vn 0.9456 -0.3072 0.1072
vn -0.5844 0.8044 0.1072
vn 0.5844 0.8044 0.1072
vn -0.0000 -0.9942 0.1072
vn -0.9456 -0.3072 0.1072
vn 0.7394 -0.2402 -0.6290
vn -0.7394 -0.2402 -0.6290
vn -0.0000 -0.7774 -0.6290
vn -0.4570 0.6290 -0.6290
vn 0.4570 0.6290 -0.6290
vn -1.0000 -0.0000 -0.0000
vn 1.0000 -0.0000 -0.0000
vn -0.0000 1.0000 -0.0000
vn -0.7071 0.7071 -0.0000
vn 0.7071 -0.7071 -0.0000
vn -0.7071 -0.7071 -0.0000
vn 0.7071 0.7071 -0.0000
vt 0.775489 0.229157
vt 0.853495 0.428027
vt 0.775489 0.428027
vt 0.502468 0.361737
vt 0.424462 0.162868
vt 0.502468 0.162868
vt 0.658480 0.229157
vt 0.736486 0.428027
vt 0.658480 0.428027
vt 0.443963 0.561804
vt 0.424462 0.361737
vt 0.619477 0.361737
vt 0.541471 0.162868
vt 0.619477 0.162868
vt 0.892498 0.229157
vt 0.970504 0.428027
vt 0.892498 0.428027
vt 0.638978 0.455741
vt 0.607944 0.561804
vt 0.645038 0.612860
vt 0.607944 0.624913
vt 0.951003 0.029090
vt 0.970504 0.229157
vt 0.833993 0.029090
vt 0.853495 0.229157
vt 0.716984 0.029090
vt 0.736486 0.229157
vt 0.560972 0.561804
vt 0.541471 0.361737
vt 0.521969 0.135154
vt 0.638978 0.029090
vt 0.638978 0.135154
vt 0.521969 0.135154
vt 0.990006 0.455741
vt 0.872997 0.455741
vt 0.755988 0.455741
vt 0.473736 0.751129
vt 0.438138 0.656467
vt 0.483989 0.719575
vt 0.404960 0.135154
vt 0.521969 0.029090
vt 0.872997 0.561804
vt 0.755988 0.455741
vt 0.638978 0.561804
vt 0.755988 0.561804
vt 0.483989 0.593359
vt 0.558177 0.695470
vt 0.585019 0.714971
vt 0.558177 0.617464
vt 0.585019 0.597962
vt 0.404960 0.656467
vt 0.473736 0.561805
vt 0.079561 0.257919
vt 0.013975 0.049007
vt 0.079561 0.049007
vt 0.078061 0.257919
vt 0.143647 0.049007
vt 0.078061 0.049007
vt 0.076319 0.257919
vt 0.010733 0.049007
vt 0.076319 0.049007
vt 0.143647 0.257919
vt 0.094458 0.468044
vt 0.127251 0.468044
vt 0.144774 0.257919
vt 0.079188 0.049007
vt 0.144774 0.049007
vt 0.078428 0.257920
vt 0.012842 0.049007
vt 0.078428 0.049007
vt 0.340287 0.048768
vt 0.390704 0.032231
vt 0.390795 0.065023
vt 0.029239 0.468044
vt 0.012842 0.257920
vt 0.013975 0.257919
vt 0.063164 0.468044
vt 0.030372 0.468044
vt 0.027130 0.468044
vt 0.010733 0.257919
vt 0.095585 0.468044
vt 0.079188 0.257919
vt 0.143999 0.049007
vt 0.078413 0.257920
vt 0.078413 0.049007
vt 0.076787 0.257919
vt 0.011202 0.049007
vt 0.076787 0.049007
vt 0.076475 0.257919
vt 0.010889 0.049007
vt 0.076475 0.049007
vt 0.011202 0.257919
vt 0.060391 0.468044
vt 0.027598 0.468044
vt 0.079254 0.257919
vt 0.144840 0.049007
vt 0.079254 0.049007
vt 0.077295 0.257920
vt 0.011710 0.049007
vt 0.077295 0.049007
vt 0.340541 0.048659
vt 0.390902 0.031951
vt 0.391105 0.064743
vt 0.028106 0.468044
vt 0.011710 0.257920
vt 0.143999 0.257920
vt 0.094810 0.468044
vt 0.027286 0.468044
vt 0.010889 0.257919
vt 0.128443 0.468044
vt 0.144840 0.257919
vt 0.078116 0.257920
vt 0.012530 0.049007
vt 0.078116 0.049007
vt 0.144840 0.257919
vt 0.079254 0.049007
vt 0.144840 0.049007
vt 0.078428 0.257919
vt 0.095651 0.468044
vt 0.079254 0.257919
vt 0.077764 0.257919
vt 0.012178 0.049007
vt 0.077764 0.049007
vt 0.079345 0.257920
vt 0.144930 0.049007
vt 0.079345 0.049007
vt 0.341192 0.048487
vt 0.391655 0.032090
vt 0.391655 0.064883
vt 0.144930 0.257920
vt 0.095741 0.468044
vt 0.128534 0.468044
vt 0.028926 0.468044
vt 0.012530 0.257920
vt 0.029239 0.468044
vt 0.012842 0.257919
vt 0.028575 0.468044
vt 0.012178 0.257919
vt 0.060391 0.022363
vt 0.061367 0.022363
vt 0.059922 0.022363
vt 0.359902 0.074686
vt 0.391090 0.117612
vt 0.359902 0.127746
vt 0.128378 0.022363
vt 0.127251 0.022363
vt 0.094458 0.022363
vt 0.062032 0.022363
vt 0.030372 0.022363
vt 0.063164 0.022363
vt 0.359734 0.075423
vt 0.390922 0.118350
vt 0.359734 0.128483
vt 0.060899 0.022363
vt 0.127603 0.022363
vt 0.060079 0.022363
vt 0.095650 0.022363
vt 0.359734 0.075578
vt 0.390922 0.118504
vt 0.359734 0.128638
vt 0.128443 0.022363
vt 0.095741 0.022363
vt 0.028926 0.022363
vt 0.061719 0.022363
vt 0.326294 0.668746
vt 0.389032 0.794221
vt 0.326294 0.794221
vt 0.075344 0.801833
vt 0.138082 0.927308
vt 0.075344 0.927307
vt 0.263557 0.668746
vt 0.138082 0.801833
vt 0.200819 0.927308
vt 0.138082 0.927307
vt 0.138082 0.990045
vt 0.075344 0.927308
vt 0.075344 0.990045
vt 0.012607 0.927308
vt 0.263557 0.801832
vt 0.200819 0.713108
vt 0.263557 0.713108
vt 0.326294 0.919696
vt 0.389032 0.794221
vt 0.389032 0.919696
vt 0.138082 0.713108
vt 0.200819 0.801832
vt 0.138082 0.801832
vt 0.200819 0.927307
vt 0.263557 0.801833
vt 0.263557 0.927307
vt 0.200819 0.668746
vt 0.138082 0.757470
vt 0.075344 0.668746
vt 0.138082 0.668746
vt 0.012607 0.801833
vt 0.012607 0.927307
vt 0.012607 0.668746
vt 0.075344 0.757470
vt 0.012607 0.757470
vt 0.326294 0.927307
vt 0.012607 0.801832
vt 0.075344 0.801832
vt 0.482966 0.561804
vt 0.585019 0.593359
vt 0.645038 0.573857
vt 0.912000 0.029090
vt 0.794990 0.029090
vt 0.677981 0.029090
vt 0.599975 0.561804
vt 0.521969 0.029090
vt 0.404960 0.029090
vt 0.990006 0.561804
vt 0.359636 0.075244
vt 0.359488 0.022184
vt 0.062032 0.468044
vt 0.059922 0.468044
vt 0.128378 0.468044
vt 0.359980 0.075069
vt 0.359652 0.022010
vt 0.060899 0.468044
vt 0.127603 0.468044
vt 0.060079 0.468044
vt 0.095650 0.468044
vt 0.128443 0.468044
vt 0.360467 0.075017
vt 0.360467 0.021957
vt 0.061719 0.468044
vt 0.062032 0.468044
vt 0.061368 0.468044
vt 0.027598 0.022363
vt 0.028575 0.022363
vt 0.027130 0.022363
vt 0.340627 0.101216
vt 0.391090 0.084819
vt 0.095585 0.022363
vt 0.029239 0.022363
vt 0.340459 0.101953
vt 0.390922 0.085557
vt 0.028106 0.022363
vt 0.094810 0.022363
vt 0.027286 0.022363
vt 0.128443 0.022363
vt 0.340459 0.102108
vt 0.390922 0.085711
vt 0.095650 0.022363
vt 0.128534 0.022363
vt 0.389032 0.668746
vt 0.138082 0.801833
vt 0.263557 0.794221
vt 0.200819 0.801833
vt 0.012607 0.990045
vt 0.263557 0.668746
vt 0.326294 0.801832
s 0
f 2/1/1 3/2/1 1/3/1
f 4/4/2 5/5/2 3/6/2
f 6/7/3 7/8/3 5/9/3
f 4/4/4 13/10/4 6/11/4
f 8/12/5 9/13/5 7/14/5
f 10/15/6 1/16/6 9/17/6
f 7/8/7 18/18/7 5/9/7
f 12/19/8 14/20/8 13/21/8
f 10/15/9 12/22/9 2/23/9
f 2/1/10 11/24/10 4/25/10
f 6/7/11 14/26/11 8/27/11
f 8/12/12 15/28/12 10/29/12
f 20/30/5 24/31/5 19/32/5
f 9/13/13 19/32/13 7/14/13
f 5/5/14 17/33/14 3/6/14
f 9/17/15 16/34/15 20/35/15
f 3/2/16 16/36/16 1/3/16
f 25/37/17 26/38/17 30/39/17
f 18/40/2 22/41/2 17/33/2
f 16/34/6 25/42/6 20/35/6
f 19/43/3 23/44/3 18/18/3
f 17/35/1 21/45/1 16/36/1
f 27/46/18 29/47/18 30/39/18
f 24/48/19 28/49/19 23/50/19
f 21/51/20 27/46/20 26/38/20
f 25/37/21 29/47/21 24/48/21
f 22/52/22 28/49/22 27/46/22
f 32/53/1 33/54/1 31/55/1
f 34/56/2 35/57/2 33/58/2
f 36/59/3 37/60/3 35/61/3
f 36/62/23 41/63/23 43/64/23
f 38/65/5 39/66/5 37/67/5
f 40/68/6 31/69/6 39/70/6
f 42/71/8 44/72/8 43/73/8
f 40/68/24 42/74/24 32/75/24
f 34/76/25 42/77/25 41/78/25
f 36/59/26 44/79/26 38/80/26
f 38/65/27 45/81/27 40/82/27
f 46/83/1 49/84/1 48/85/1
f 49/86/2 50/87/2 48/88/2
f 51/89/3 52/90/3 50/91/3
f 51/92/23 56/93/23 58/94/23
f 53/95/5 54/96/5 52/97/5
f 55/98/6 46/99/6 54/100/6
f 57/101/8 59/102/8 58/103/8
f 55/98/24 57/104/24 47/105/24
f 47/106/25 56/107/25 49/84/25
f 51/89/26 59/108/26 53/109/26
f 53/95/27 60/110/27 55/111/27
f 62/112/1 63/113/1 61/114/1
f 64/115/2 65/116/2 63/117/2
f 66/118/3 67/69/3 65/70/3
f 64/115/23 73/119/23 66/120/23
f 68/121/5 69/122/5 67/123/5
f 70/124/6 61/125/6 69/126/6
f 72/127/8 74/128/8 73/129/8
f 62/130/24 75/131/24 72/132/24
f 62/112/25 71/133/25 64/134/25
f 66/118/26 74/135/26 68/136/26
f 68/121/27 75/137/27 70/138/27
f 50/87/28 82/139/28 48/88/28
f 69/122/29 89/140/29 67/123/29
f 37/60/30 78/141/30 35/61/30
f 77/142/18 79/143/18 80/144/18
f 39/66/29 79/145/29 37/67/29
f 33/58/28 78/146/28 77/147/28
f 31/69/31 80/148/31 39/70/31
f 31/55/32 77/149/32 76/150/32
f 82/151/18 84/152/18 85/153/18
f 46/99/31 85/154/31 54/100/31
f 48/85/32 81/155/32 46/83/32
f 52/90/30 83/156/30 50/91/30
f 54/96/29 84/157/29 52/97/29
f 87/158/18 89/159/18 90/160/18
f 65/116/28 87/161/28 63/117/28
f 61/125/31 90/162/31 69/126/31
f 61/114/32 87/163/32 86/164/32
f 67/69/30 88/148/30 65/70/30
f 92/165/33 93/166/33 91/167/33
f 94/168/18 97/169/18 93/170/18
f 98/167/34 95/171/34 97/165/34
f 96/172/8 91/173/8 95/174/8
f 97/175/3 91/176/3 93/169/3
f 94/177/35 96/178/35 98/176/35
f 100/179/36 101/180/36 99/181/36
f 101/182/18 106/183/18 105/184/18
f 106/185/37 103/186/37 105/187/37
f 103/188/8 100/189/8 99/190/8
f 105/191/38 99/181/38 101/180/38
f 106/185/39 100/191/39 104/180/39
f 108/192/38 109/193/38 107/194/38
f 110/195/18 113/170/18 109/196/18
f 114/197/39 111/198/39 113/199/39
f 112/179/8 107/200/8 111/190/8
f 113/199/37 107/168/37 109/201/37
f 110/198/36 112/187/36 114/202/36
f 2/1/1 4/25/1 3/2/1
f 4/4/2 6/11/2 5/5/2
f 6/7/3 8/27/3 7/8/3
f 4/4/4 11/203/4 13/10/4
f 8/12/5 10/29/5 9/13/5
f 10/15/6 2/23/6 1/16/6
f 7/8/7 19/43/7 18/18/7
f 13/21/8 11/204/8 12/19/8
f 12/19/8 15/205/8 14/20/8
f 10/15/9 15/206/9 12/22/9
f 2/1/10 12/207/10 11/24/10
f 6/7/11 13/208/11 14/26/11
f 8/12/12 14/209/12 15/28/12
f 20/30/5 25/210/5 24/31/5
f 9/13/13 20/30/13 19/32/13
f 5/5/14 18/40/14 17/33/14
f 9/17/15 1/16/15 16/34/15
f 3/2/16 17/35/16 16/36/16
f 25/37/17 21/51/17 26/38/17
f 18/40/2 23/211/2 22/41/2
f 16/34/6 21/212/6 25/42/6
f 19/43/3 24/45/3 23/44/3
f 17/35/1 22/42/1 21/45/1
f 30/39/18 26/38/18 27/46/18
f 27/46/18 28/49/18 29/47/18
f 24/48/19 29/47/19 28/49/19
f 21/51/20 22/52/20 27/46/20
f 25/37/21 30/39/21 29/47/21
f 22/52/22 23/50/22 28/49/22
f 32/53/1 34/76/1 33/54/1
f 34/56/2 36/62/2 35/57/2
f 36/59/3 38/80/3 37/60/3
f 36/62/23 34/56/23 41/63/23
f 38/65/5 40/82/5 39/66/5
f 40/68/6 32/75/6 31/69/6
f 43/73/8 41/213/8 42/71/8
f 42/71/8 45/214/8 44/72/8
f 40/68/24 45/215/24 42/74/24
f 34/76/25 32/53/25 42/77/25
f 36/59/26 43/216/26 44/79/26
f 38/65/27 44/217/27 45/81/27
f 46/83/1 47/106/1 49/84/1
f 49/86/2 51/92/2 50/87/2
f 51/89/3 53/109/3 52/90/3
f 51/92/23 49/86/23 56/93/23
f 53/95/5 55/111/5 54/96/5
f 55/98/6 47/105/6 46/99/6
f 58/103/8 56/218/8 57/101/8
f 57/101/8 60/219/8 59/102/8
f 55/98/24 60/220/24 57/104/24
f 47/106/25 57/221/25 56/107/25
f 51/89/26 58/222/26 59/108/26
f 53/95/27 59/223/27 60/110/27
f 62/112/1 64/134/1 63/113/1
f 64/115/2 66/120/2 65/116/2
f 66/118/3 68/136/3 67/69/3
f 64/115/23 71/224/23 73/119/23
f 68/121/5 70/138/5 69/122/5
f 70/124/6 62/130/6 61/125/6
f 73/129/8 71/225/8 72/127/8
f 72/127/8 75/226/8 74/128/8
f 62/130/24 70/124/24 75/131/24
f 62/112/25 72/227/25 71/133/25
f 66/118/26 73/228/26 74/135/26
f 68/121/27 74/229/27 75/137/27
f 50/87/28 83/230/28 82/139/28
f 69/122/29 90/231/29 89/140/29
f 37/60/30 79/232/30 78/141/30
f 80/144/18 76/233/18 77/142/18
f 77/142/18 78/234/18 79/143/18
f 39/66/29 80/235/29 79/145/29
f 33/58/28 35/57/28 78/146/28
f 31/69/31 76/236/31 80/148/31
f 31/55/32 33/54/32 77/149/32
f 85/153/18 81/237/18 82/151/18
f 82/151/18 83/238/18 84/152/18
f 46/99/31 81/239/31 85/154/31
f 48/85/32 82/240/32 81/155/32
f 52/90/30 84/241/30 83/156/30
f 54/96/29 85/242/29 84/157/29
f 90/160/18 86/243/18 87/158/18
f 87/158/18 88/244/18 89/159/18
f 65/116/28 88/245/28 87/161/28
f 61/125/31 86/246/31 90/162/31
f 61/114/32 63/113/32 87/163/32
f 67/69/30 89/236/30 88/148/30
f 92/165/33 94/247/33 93/166/33
f 94/168/18 98/248/18 97/169/18
f 98/167/34 96/249/34 95/171/34
f 96/172/8 92/250/8 91/173/8
f 97/175/3 95/177/3 91/176/3
f 94/177/35 92/251/35 96/178/35
f 100/179/36 102/186/36 101/180/36
f 101/182/18 102/167/18 106/183/18
f 106/185/37 104/180/37 103/186/37
f 103/188/8 104/186/8 100/189/8
f 105/191/38 103/252/38 99/181/38
f 106/185/39 102/194/39 100/191/39
f 108/192/38 110/198/38 109/193/38
f 110/195/18 114/168/18 113/170/18
f 114/197/39 112/193/39 111/198/39
f 112/179/8 108/253/8 107/200/8
f 113/199/37 111/198/37 107/168/37
f 110/198/36 108/192/36 112/187/36
