# Blender 4.3.2
# www.blender.org
o Cube
v 0.050000 0.050000 -0.318130
v 0.050000 -0.050000 -0.318130
v 0.050000 0.050000 0.281871
v 0.050000 -0.050000 0.281871
v -0.050000 0.050000 -0.318130
v -0.050000 -0.050000 -0.318130
v -0.050000 0.050000 0.281871
v -0.050000 -0.050000 0.281871
v 0.277567 0.000000 -0.316503
v -0.277567 0.000000 -0.316503
v 0.000000 0.000000 0.381871
v 0.000000 0.000000 -0.038936
v 0.000000 -0.277567 -0.316503
v 0.000000 0.277567 -0.316503
v 0.000000 -0.000000 -0.038936
vn -0.0000 1.0000 -0.0000
vn -0.8944 -0.0000 0.4472
vn -1.0000 -0.0000 -0.0000
vn -0.0000 -1.0000 -0.0000
vn 1.0000 -0.0000 -0.0000
vn -0.0000 -0.0000 -1.0000
vn -0.0000 -0.8944 0.4472
vn -0.0000 0.8944 0.4472
vn 0.8944 -0.0000 0.4472
vt 0.728581 0.252222
vt 0.014042 0.133132
vt 0.728581 0.133132
vt 0.718872 0.567103
vt 0.827586 0.518484
vt 0.827586 0.664339
vt 0.014042 0.252221
vt 0.728581 0.371311
vt 0.014042 0.371311
vt 0.728581 0.490401
vt 0.014042 0.014042
vt 0.728581 0.014042
vt 0.847671 0.371311
vt 0.481516 0.518484
vt 0.481516 0.985958
vt 0.014042 0.985958
vt 0.654551 0.680545
vt 0.545837 0.631927
vt 0.654551 0.534691
vt 0.682634 0.680545
vt 0.509599 0.518484
vt 0.014042 0.490401
vt 0.847671 0.490401
s 0
f 5/1/1 3/2/1 1/3/1
f 7/4/2 8/5/2 11/6/2
f 7/7/3 6/8/3 8/9/3
f 2/10/4 8/9/4 6/8/4
f 1/3/5 4/11/5 2/12/5
f 5/13/6 2/10/6 6/8/6
f 10/14/1 12/15/1 9/16/1
f 8/17/7 4/18/7 11/19/7
f 3/20/8 7/4/8 11/6/8
f 4/18/9 3/21/9 11/19/9
f 14/14/5 15/15/5 13/16/5
f 5/1/1 7/7/1 3/2/1
f 7/7/3 5/1/3 6/8/3
f 2/10/4 4/22/4 8/9/4
f 1/3/5 3/2/5 4/11/5
f 5/13/6 1/23/6 2/10/6
