# Blender 3.4.1
# www.blender.org
o Sphere
v -0.000000 0.777817 -0.777817
v -0.000000 0.420952 -1.016267
v -0.000000 -0.420952 -1.016267
v -0.000000 -1.016267 -0.420952
v 0.161091 1.016267 -0.388909
v 0.297658 0.777817 -0.718610
v 0.388909 0.420952 -0.938909
v 0.420952 -0.000000 -1.016267
v 0.388909 -0.420952 -0.938909
v 0.297658 -0.777817 -0.718610
v 0.161091 -1.016267 -0.388909
v 0.297658 1.016267 -0.297658
v 0.550000 0.777817 -0.550000
v 0.718610 0.420952 -0.718610
v 0.777817 -0.000000 -0.777817
v 0.718610 -0.420952 -0.718610
v 0.550000 -0.777817 -0.550000
v 0.297658 -1.016267 -0.297658
v 0.388909 1.016267 -0.161091
v 0.718609 0.777817 -0.297658
v 0.938909 0.420952 -0.388909
v 1.016267 -0.000000 -0.420952
v 0.938909 -0.420952 -0.388909
v 0.718609 -0.777817 -0.297658
v 0.388909 -1.016267 -0.161091
v 0.420952 1.016267 -0.000000
v 0.777817 0.777817 -0.000000
v 1.016267 0.420952 0.000000
v 1.100000 -0.000000 0.000000
v 1.016267 -0.420952 0.000000
v 0.777817 -0.777817 -0.000000
v 0.420952 -1.016267 -0.000000
v 0.388909 1.016267 0.161091
v 0.718609 0.777817 0.297658
v 0.938908 0.420952 0.388909
v 1.016267 -0.000000 0.420952
v 0.938908 -0.420952 0.388909
v 0.718609 -0.777817 0.297658
v 0.388909 -1.016267 0.161091
v 0.297658 1.016267 0.297658
v 0.550000 0.777817 0.550000
v 0.718609 0.420952 0.718610
v 0.777817 -0.000000 0.777817
v 0.718609 -0.420952 0.718610
v 0.550000 -0.777817 0.550000
v 0.297658 -1.016267 0.297658
v 0.161091 1.016267 0.388908
v 0.297658 0.777817 0.718609
v 0.388908 0.420952 0.938908
v 0.420951 -0.000000 1.016267
v 0.388908 -0.420952 0.938908
v 0.297658 -0.777817 0.718609
v 0.161091 -1.016267 0.388909
v -0.000000 1.016267 0.420951
v -0.000000 0.777817 0.777817
v -0.000000 0.420952 1.016267
v -0.000000 -0.000000 1.100000
v -0.000000 -0.420952 1.016267
v -0.000000 -0.777817 0.777817
v -0.000000 -1.016267 0.420951
v -0.161091 1.016267 0.388908
v -0.297658 0.777817 0.718609
v -0.388909 0.420952 0.938908
v -0.420952 -0.000000 1.016267
v -0.388909 -0.420952 0.938908
v -0.297658 -0.777817 0.718609
v -0.161091 -1.016267 0.388908
v -0.297658 1.016267 0.297658
v -0.550000 0.777817 0.549999
v -0.718610 0.420952 0.718609
v -0.777818 -0.000000 0.777817
v -0.718610 -0.420952 0.718609
v -0.550000 -0.777817 0.549999
v -0.297658 -1.016267 0.297657
v -0.388909 1.016267 0.161091
v -0.718609 0.777817 0.297657
v -0.938909 0.420952 0.388908
v -1.016267 -0.000000 0.420951
v -0.938909 -0.420952 0.388908
v -0.718609 -0.777817 0.297657
v -0.388909 -1.016267 0.161091
v -0.420952 1.016267 -0.000000
v -0.777817 0.777817 -0.000001
v -1.016267 0.420952 -0.000001
v -1.100000 -0.000000 -0.000001
v -1.016267 -0.420952 -0.000001
v -0.777817 -0.777817 -0.000001
v -0.420952 -1.016267 -0.000000
v -0.388909 1.016267 -0.161091
v -0.718609 0.777817 -0.297658
v -0.938908 0.420952 -0.388909
v -1.016267 -0.000000 -0.420952
v -0.938908 -0.420952 -0.388909
v -0.718609 -0.777817 -0.297658
v -0.388908 -1.016267 -0.161092
v -0.297658 1.016267 -0.297658
v -0.549999 0.777817 -0.550000
v -0.718609 0.420952 -0.718610
v -0.777817 -0.000000 -0.777818
v -0.718609 -0.420952 -0.718610
v -0.549999 -0.777817 -0.550000
v -0.297658 -1.016267 -0.297658
v -0.161091 1.016267 -0.388909
v -0.297657 0.777817 -0.718610
v -0.388908 0.420952 -0.938909
v -0.420951 -0.000000 -1.016267
v -0.388908 -0.420952 -0.938909
v -0.297657 -0.777817 -0.718610
v -0.161091 -1.016267 -0.388909
v -0.000000 1.100000 0.000000
v 0.000000 1.016267 -0.420952
v 0.000001 -0.000000 -1.100000
v 0.000000 -0.777817 -0.777817
v -0.000000 -1.100000 -0.000000
vn -0.0000 -0.0000 -1.0000
vn 0.3549 0.3744 -0.8567
vn 0.3827 -0.0000 -0.9239
vn -0.0000 0.9152 -0.4031
vn 0.2751 0.6952 -0.6641
vn -0.0000 0.6952 -0.7189
vn -0.0000 -0.6952 -0.7189
vn 0.1543 -0.9152 -0.3724
vn -0.0000 -0.9152 -0.4031
vn 0.3549 -0.3744 -0.8567
vn -0.0000 -0.3744 -0.9273
vn -0.0000 0.3744 -0.9273
vn -0.0000 1.0000 -0.0000
vn 0.1543 0.9152 -0.3724
vn -0.0000 -1.0000 -0.0000
vn 0.2751 -0.6952 -0.6641
vn 0.2850 -0.9152 -0.2850
vn 0.6557 -0.3744 -0.6557
vn 0.6557 0.3744 -0.6557
vn 0.2850 0.9152 -0.2850
vn 0.5083 -0.6952 -0.5083
vn 0.7071 -0.0000 -0.7071
vn 0.5083 0.6952 -0.5083
vn 0.3724 0.9152 -0.1543
vn 0.3724 -0.9152 -0.1543
vn 0.6641 -0.6952 -0.2751
vn 0.8567 0.3744 -0.3549
vn 0.9239 -0.0000 -0.3827
vn 0.6641 0.6952 -0.2751
vn 0.8567 -0.3744 -0.3549
vn 0.7189 -0.6952 -0.0000
vn 1.0000 -0.0000 -0.0000
vn 0.4031 0.9152 -0.0000
vn 0.7189 0.6952 -0.0000
vn 0.4031 -0.9152 -0.0000
vn 0.9273 -0.3744 -0.0000
vn 0.9273 0.3744 -0.0000
vn 0.3724 -0.9152 0.1543
vn 0.8567 -0.3744 0.3549
vn 0.6641 0.6952 0.2751
vn 0.8567 0.3744 0.3549
vn 0.3724 0.9152 0.1543
vn 0.6641 -0.6952 0.2751
vn 0.9239 -0.0000 0.3827
vn 0.6557 -0.3744 0.6557
vn 0.6557 0.3744 0.6557
vn 0.2850 0.9152 0.2850
vn 0.2850 -0.9152 0.2850
vn 0.5083 -0.6952 0.5083
vn 0.7071 -0.0000 0.7071
vn 0.5083 0.6952 0.5083
vn 0.1543 -0.9152 0.3724
vn 0.2751 -0.6952 0.6641
vn 0.3549 0.3744 0.8567
vn 0.3827 -0.0000 0.9239
vn 0.1543 0.9152 0.3724
vn 0.2751 0.6952 0.6641
vn 0.3549 -0.3744 0.8567
vn -0.0000 -0.0000 1.0000
vn -0.0000 0.9152 0.4031
vn -0.0000 0.6952 0.7189
vn -0.0000 -0.6952 0.7189
vn -0.0000 -0.9152 0.4031
vn -0.0000 -0.3744 0.9273
vn -0.0000 0.3744 0.9273
vn -0.2751 -0.6952 0.6641
vn -0.1543 -0.9152 0.3724
vn -0.3549 -0.3744 0.8567
vn -0.3549 0.3744 0.8567
vn -0.1543 0.9152 0.3724
vn -0.3827 -0.0000 0.9239
vn -0.2751 0.6952 0.6641
vn -0.6557 0.3744 0.6557
vn -0.2850 0.9152 0.2850
vn -0.2850 -0.9152 0.2850
vn -0.6557 -0.3744 0.6557
vn -0.5083 -0.6952 0.5083
vn -0.7071 -0.0000 0.7071
vn -0.5083 0.6952 0.5083
vn -0.3724 -0.9152 0.1543
vn -0.6641 -0.6952 0.2751
vn -0.9239 -0.0000 0.3827
vn -0.3724 0.9152 0.1543
vn -0.6641 0.6952 0.2751
vn -0.8567 -0.3744 0.3549
vn -0.8567 0.3744 0.3549
vn -0.4031 0.9152 -0.0000
vn -0.7189 0.6952 -0.0000
vn -0.7189 -0.6952 -0.0000
vn -0.4031 -0.9152 -0.0000
vn -0.9273 -0.3744 -0.0000
vn -0.9273 0.3744 -0.0000
vn -1.0000 -0.0000 -0.0000
vn -0.3724 -0.9152 -0.1543
vn -0.8567 -0.3744 -0.3549
vn -0.8567 0.3744 -0.3549
vn -0.3724 0.9152 -0.1543
vn -0.6641 -0.6952 -0.2751
vn -0.9239 -0.0000 -0.3827
vn -0.6641 0.6952 -0.2751
vn -0.2850 0.9152 -0.2850
vn -0.2850 -0.9152 -0.2850
vn -0.5083 -0.6952 -0.5083
vn -0.6557 0.3744 -0.6557
vn -0.7071 -0.0000 -0.7071
vn -0.5083 0.6952 -0.5083
vn -0.6557 -0.3744 -0.6557
vn -0.2751 -0.6952 -0.6641
vn -0.3827 -0.0000 -0.9239
vn -0.1543 0.9152 -0.3724
vn -0.2751 0.6952 -0.6641
vn -0.1543 -0.9152 -0.3724
vn -0.3549 -0.3744 -0.8567
vn -0.3549 0.3744 -0.8567
vt 0.750000 0.750000
vt 0.750000 0.625000
vt 0.750000 0.375000
vt 0.750000 0.125000
vt 0.687500 0.875000
vt 0.687500 0.750000
vt 0.687500 0.625000
vt 0.687500 0.500000
vt 0.687500 0.375000
vt 0.687500 0.250000
vt 0.687500 0.125000
vt 0.625000 0.875000
vt 0.625000 0.750000
vt 0.625000 0.625000
vt 0.625000 0.500000
vt 0.625000 0.375000
vt 0.625000 0.250000
vt 0.625000 0.125000
vt 0.562500 0.875000
vt 0.562500 0.750000
vt 0.562500 0.625000
vt 0.562500 0.500000
vt 0.562500 0.375000
vt 0.562500 0.250000
vt 0.562500 0.125000
vt 0.500000 0.875000
vt 0.500000 0.750000
vt 0.500000 0.625000
vt 0.500000 0.500000
vt 0.500000 0.375000
vt 0.500000 0.250000
vt 0.500000 0.125000
vt 0.437500 0.875000
vt 0.437500 0.750000
vt 0.437500 0.625000
vt 0.437500 0.500000
vt 0.437500 0.375000
vt 0.437500 0.250000
vt 0.437500 0.125000
vt 0.375000 0.875000
vt 0.375000 0.750000
vt 0.375000 0.625000
vt 0.375000 0.500000
vt 0.375000 0.375000
vt 0.375000 0.250000
vt 0.375000 0.125000
vt 0.312500 0.875000
vt 0.312500 0.750000
vt 0.312500 0.625000
vt 0.312500 0.500000
vt 0.312500 0.375000
vt 0.312500 0.250000
vt 0.312500 0.125000
vt 0.250000 0.875000
vt 0.250000 0.750000
vt 0.250000 0.625000
vt 0.250000 0.500000
vt 0.250000 0.375000
vt 0.250000 0.250000
vt 0.250000 0.125000
vt 0.187500 0.875000
vt 0.187500 0.750000
vt 0.187500 0.625000
vt 0.187500 0.500000
vt 0.187500 0.375000
vt 0.187500 0.250000
vt 0.187500 0.125000
vt 0.125000 0.875000
vt 0.125000 0.750000
vt 0.125000 0.625000
vt 0.125000 0.500000
vt 0.125000 0.375000
vt 0.125000 0.250000
vt 0.125000 0.125000
vt 0.062500 0.875000
vt 0.062500 0.750000
vt 0.062500 0.625000
vt 0.062500 0.500000
vt 0.062500 0.375000
vt 0.062500 0.250000
vt 0.062500 0.125000
vt 0.000000 0.875000
vt 1.000000 0.875000
vt 0.000000 0.750000
vt 1.000000 0.750000
vt 0.000000 0.625000
vt 1.000000 0.625000
vt 0.000000 0.500000
vt 1.000000 0.500000
vt 0.000000 0.375000
vt 1.000000 0.375000
vt 0.000000 0.250000
vt 1.000000 0.250000
vt 0.000000 0.125000
vt 1.000000 0.125000
vt 0.937500 0.875000
vt 0.937500 0.750000
vt 0.937500 0.625000
vt 0.937500 0.500000
vt 0.937500 0.375000
vt 0.937500 0.250000
vt 0.937500 0.125000
vt 0.875000 0.875000
vt 0.875000 0.750000
vt 0.875000 0.625000
vt 0.875000 0.500000
vt 0.875000 0.375000
vt 0.875000 0.250000
vt 0.875000 0.125000
vt 0.812500 0.875000
vt 0.812500 0.750000
vt 0.812500 0.625000
vt 0.812500 0.500000
vt 0.812500 0.375000
vt 0.812500 0.250000
vt 0.812500 0.125000
vt 0.718750 1.000000
vt 0.656250 1.000000
vt 0.593750 1.000000
vt 0.531250 1.000000
vt 0.468750 1.000000
vt 0.406250 1.000000
vt 0.343750 1.000000
vt 0.281250 1.000000
vt 0.218750 1.000000
vt 0.156250 1.000000
vt 0.093750 1.000000
vt 0.031250 1.000000
vt 0.968750 1.000000
vt 0.906250 1.000000
vt 0.843750 1.000000
vt 0.781250 1.000000
vt 0.750000 0.875000
vt 0.750000 0.500000
vt 0.750000 0.250000
vt 0.718750 0.000000
vt 0.656250 0.000000
vt 0.593750 0.000000
vt 0.531250 0.000000
vt 0.468750 0.000000
vt 0.406250 0.000000
vt 0.343750 0.000000
vt 0.281250 0.000000
vt 0.218750 0.000000
vt 0.156250 0.000000
vt 0.093750 0.000000
vt 0.031250 0.000000
vt 0.968750 0.000000
vt 0.906250 0.000000
vt 0.843750 0.000000
vt 0.781250 0.000000
s 1
usemtl Material
f 112/134/1 7/7/2 8/8/3
f 111/133/4 6/6/5 1/1/6
f 113/135/7 11/11/8 4/4/9
f 112/134/1 9/9/10 3/3/11
f 1/1/6 7/7/2 2/2/12
f 111/133/4 110/117/13 5/5/14
f 114/136/15 4/4/9 11/11/8
f 113/135/7 9/9/10 10/10/16
f 10/10/16 18/18/17 11/11/8
f 8/8/3 16/16/18 9/9/10
f 6/6/5 14/14/19 7/7/2
f 5/5/14 110/118/13 12/12/20
f 114/137/15 11/11/8 18/18/17
f 9/9/10 17/17/21 10/10/16
f 7/7/2 15/15/22 8/8/3
f 5/5/14 13/13/23 6/6/5
f 12/12/20 110/119/13 19/19/24
f 114/138/15 18/18/17 25/25/25
f 16/16/18 24/24/26 17/17/21
f 15/15/22 21/21/27 22/22/28
f 13/13/23 19/19/24 20/20/29
f 18/18/17 24/24/26 25/25/25
f 15/15/22 23/23/30 16/16/18
f 13/13/23 21/21/27 14/14/19
f 23/23/30 31/31/31 24/24/26
f 21/21/27 29/29/32 22/22/28
f 20/20/29 26/26/33 27/27/34
f 25/25/25 31/31/31 32/32/35
f 22/22/28 30/30/36 23/23/30
f 20/20/29 28/28/37 21/21/27
f 19/19/24 110/120/13 26/26/33
f 114/139/15 25/25/25 32/32/35
f 31/31/31 39/39/38 32/32/35
f 29/29/32 37/37/39 30/30/36
f 28/28/37 34/34/40 35/35/41
f 26/26/33 110/121/13 33/33/42
f 114/140/15 32/32/35 39/39/38
f 30/30/36 38/38/43 31/31/31
f 28/28/37 36/36/44 29/29/32
f 27/27/34 33/33/42 34/34/40
f 36/36/44 44/44/45 37/37/39
f 34/34/40 42/42/46 35/35/41
f 33/33/42 110/122/13 40/40/47
f 114/141/15 39/39/38 46/46/48
f 37/37/39 45/45/49 38/38/43
f 35/35/41 43/43/50 36/36/44
f 34/34/40 40/40/47 41/41/51
f 38/38/43 46/46/48 39/39/38
f 114/142/15 46/46/48 53/53/52
f 44/44/45 52/52/53 45/45/49
f 43/43/50 49/49/54 50/50/55
f 41/41/51 47/47/56 48/48/57
f 46/46/48 52/52/53 53/53/52
f 43/43/50 51/51/58 44/44/45
f 41/41/51 49/49/54 42/42/46
f 40/40/47 110/123/13 47/47/56
f 49/49/54 57/57/59 50/50/55
f 48/48/57 54/54/60 55/55/61
f 53/53/52 59/59/62 60/60/63
f 50/50/55 58/58/64 51/51/58
f 48/48/57 56/56/65 49/49/54
f 47/47/56 110/124/13 54/54/60
f 114/143/15 53/53/52 60/60/63
f 51/51/58 59/59/62 52/52/53
f 60/60/63 66/66/66 67/67/67
f 57/57/59 65/65/68 58/58/64
f 55/55/61 63/63/69 56/56/65
f 54/54/60 110/125/13 61/61/70
f 114/144/15 60/60/63 67/67/67
f 58/58/64 66/66/66 59/59/62
f 56/56/65 64/64/71 57/57/59
f 55/55/61 61/61/70 62/62/72
f 62/62/72 70/70/73 63/63/69
f 61/61/70 110/126/13 68/68/74
f 114/145/15 67/67/67 74/74/75
f 66/66/66 72/72/76 73/73/77
f 64/64/71 70/70/73 71/71/78
f 61/61/70 69/69/79 62/62/72
f 66/66/66 74/74/75 67/67/67
f 64/64/71 72/72/76 65/65/68
f 114/146/15 74/74/75 81/81/80
f 72/72/76 80/80/81 73/73/77
f 70/70/73 78/78/82 71/71/78
f 69/69/79 75/75/83 76/76/84
f 73/73/77 81/81/80 74/74/75
f 71/71/78 79/79/85 72/72/76
f 70/70/73 76/76/84 77/77/86
f 68/68/74 110/127/13 75/75/83
f 76/76/84 82/82/87 83/84/88
f 81/81/80 87/92/89 88/94/90
f 78/78/82 86/90/91 79/79/85
f 76/76/84 84/86/92 77/77/86
f 75/75/83 110/128/13 82/82/87
f 114/147/15 81/81/80 88/94/90
f 80/80/81 86/90/91 87/92/89
f 77/77/86 85/88/93 78/78/82
f 87/93/89 95/102/94 88/95/90
f 85/89/93 93/100/95 86/91/91
f 83/85/88 91/98/96 84/87/92
f 82/83/87 110/129/13 89/96/97
f 114/148/15 88/95/90 95/102/94
f 87/93/89 93/100/95 94/101/98
f 85/89/93 91/98/96 92/99/99
f 83/85/88 89/96/97 90/97/100
f 89/96/97 110/130/13 96/103/101
f 114/149/15 95/102/94 102/109/102
f 93/100/95 101/108/103 94/101/98
f 92/99/99 98/105/104 99/106/105
f 90/97/100 96/103/101 97/104/106
f 94/101/98 102/109/102 95/102/94
f 92/99/99 100/107/107 93/100/95
f 90/97/100 98/105/104 91/98/96
f 100/107/107 108/115/108 101/108/103
f 98/105/104 106/113/109 99/106/105
f 97/104/106 103/110/110 104/111/111
f 101/108/103 109/116/112 102/109/102
f 99/106/105 107/114/113 100/107/107
f 97/104/106 105/112/114 98/105/104
f 96/103/101 110/131/13 103/110/110
f 114/150/15 102/109/102 109/116/112
f 108/115/108 4/4/9 109/116/112
f 106/113/109 3/3/11 107/114/113
f 105/112/114 1/1/6 2/2/12
f 103/110/110 110/132/13 111/133/4
f 114/151/15 109/116/112 4/4/9
f 108/115/108 3/3/11 113/135/7
f 106/113/109 2/2/12 112/134/1
f 103/110/110 1/1/6 104/111/111
f 112/134/1 2/2/12 7/7/2
f 111/133/4 5/5/14 6/6/5
f 113/135/7 10/10/16 11/11/8
f 112/134/1 8/8/3 9/9/10
f 1/1/6 6/6/5 7/7/2
f 113/135/7 3/3/11 9/9/10
f 10/10/16 17/17/21 18/18/17
f 8/8/3 15/15/22 16/16/18
f 6/6/5 13/13/23 14/14/19
f 9/9/10 16/16/18 17/17/21
f 7/7/2 14/14/19 15/15/22
f 5/5/14 12/12/20 13/13/23
f 16/16/18 23/23/30 24/24/26
f 15/15/22 14/14/19 21/21/27
f 13/13/23 12/12/20 19/19/24
f 18/18/17 17/17/21 24/24/26
f 15/15/22 22/22/28 23/23/30
f 13/13/23 20/20/29 21/21/27
f 23/23/30 30/30/36 31/31/31
f 21/21/27 28/28/37 29/29/32
f 20/20/29 19/19/24 26/26/33
f 25/25/25 24/24/26 31/31/31
f 22/22/28 29/29/32 30/30/36
f 20/20/29 27/27/34 28/28/37
f 31/31/31 38/38/43 39/39/38
f 29/29/32 36/36/44 37/37/39
f 28/28/37 27/27/34 34/34/40
f 30/30/36 37/37/39 38/38/43
f 28/28/37 35/35/41 36/36/44
f 27/27/34 26/26/33 33/33/42
f 36/36/44 43/43/50 44/44/45
f 34/34/40 41/41/51 42/42/46
f 37/37/39 44/44/45 45/45/49
f 35/35/41 42/42/46 43/43/50
f 34/34/40 33/33/42 40/40/47
f 38/38/43 45/45/49 46/46/48
f 44/44/45 51/51/58 52/52/53
f 43/43/50 42/42/46 49/49/54
f 41/41/51 40/40/47 47/47/56
f 46/46/48 45/45/49 52/52/53
f 43/43/50 50/50/55 51/51/58
f 41/41/51 48/48/57 49/49/54
f 49/49/54 56/56/65 57/57/59
f 48/48/57 47/47/56 54/54/60
f 53/53/52 52/52/53 59/59/62
f 50/50/55 57/57/59 58/58/64
f 48/48/57 55/55/61 56/56/65
f 51/51/58 58/58/64 59/59/62
f 60/60/63 59/59/62 66/66/66
f 57/57/59 64/64/71 65/65/68
f 55/55/61 62/62/72 63/63/69
f 58/58/64 65/65/68 66/66/66
f 56/56/65 63/63/69 64/64/71
f 55/55/61 54/54/60 61/61/70
f 62/62/72 69/69/79 70/70/73
f 66/66/66 65/65/68 72/72/76
f 64/64/71 63/63/69 70/70/73
f 61/61/70 68/68/74 69/69/79
f 66/66/66 73/73/77 74/74/75
f 64/64/71 71/71/78 72/72/76
f 72/72/76 79/79/85 80/80/81
f 70/70/73 77/77/86 78/78/82
f 69/69/79 68/68/74 75/75/83
f 73/73/77 80/80/81 81/81/80
f 71/71/78 78/78/82 79/79/85
f 70/70/73 69/69/79 76/76/84
f 76/76/84 75/75/83 82/82/87
f 81/81/80 80/80/81 87/92/89
f 78/78/82 85/88/93 86/90/91
f 76/76/84 83/84/88 84/86/92
f 80/80/81 79/79/85 86/90/91
f 77/77/86 84/86/92 85/88/93
f 87/93/89 94/101/98 95/102/94
f 85/89/93 92/99/99 93/100/95
f 83/85/88 90/97/100 91/98/96
f 87/93/89 86/91/91 93/100/95
f 85/89/93 84/87/92 91/98/96
f 83/85/88 82/83/87 89/96/97
f 93/100/95 100/107/107 101/108/103
f 92/99/99 91/98/96 98/105/104
f 90/97/100 89/96/97 96/103/101
f 94/101/98 101/108/103 102/109/102
f 92/99/99 99/106/105 100/107/107
f 90/97/100 97/104/106 98/105/104
f 100/107/107 107/114/113 108/115/108
f 98/105/104 105/112/114 106/113/109
f 97/104/106 96/103/101 103/110/110
f 101/108/103 108/115/108 109/116/112
f 99/106/105 106/113/109 107/114/113
f 97/104/106 104/111/111 105/112/114
f 108/115/108 113/135/7 4/4/9
f 106/113/109 112/134/1 3/3/11
f 105/112/114 104/111/111 1/1/6
f 108/115/108 107/114/113 3/3/11
f 106/113/109 105/112/114 2/2/12
f 103/110/110 111/133/4 1/1/6
