# Blender v2.92.0 OBJ File: 'Planet_Ring_V01.blend'
# www.blender.org
o Circle
v 0.000000 0.000000 -1.200000
v 0.000000 0.000000 -1.500000
v -0.750000 0.000000 -1.299038
v -1.299038 0.000000 -0.750000
v -1.500000 0.000000 0.000000
v -1.299038 0.000000 0.750000
v -0.750000 0.000000 1.299038
v -0.000000 0.000000 1.500000
v 0.750000 0.000000 1.299038
v 1.299038 0.000000 0.750000
v 1.500000 0.000000 0.000001
v 1.299039 0.000000 -0.749999
v 0.750001 0.000000 -1.299038
v -0.600000 0.000000 -1.039230
v -1.039231 0.000000 -0.600000
v -1.200000 0.000000 -0.000000
v -1.039230 0.000000 0.600000
v -0.000000 0.000000 1.200000
v -0.600000 0.000000 1.039230
v 1.039230 0.000000 0.600000
v 0.600000 0.000000 1.039231
v 1.200000 0.000000 0.000000
v 1.039231 0.000000 -0.599999
v 0.600001 0.000000 -1.039230
vt 0.000000 0.366026
vt 0.207180 0.207180
vt 0.100000 0.392820
vt 0.366025 0.000000
vt 0.392820 0.100000
vt 0.633975 0.000000
vt 0.607180 0.100000
vt 0.866025 0.133975
vt 0.792820 0.207180
vt 1.000000 0.633974
vt 0.900000 0.392820
vt 1.000000 0.366025
vt 0.866026 0.866025
vt 0.607180 0.900000
vt 0.792821 0.792820
vt 0.392821 0.900000
vt 0.133975 0.866026
vt 0.207180 0.792820
vt 0.000000 0.633975
vt 0.100000 0.607180
vt 0.133975 0.133975
vt 0.900000 0.607180
vt 0.633975 1.000000
vt 0.366026 1.000000
vn 0.0000 1.0000 0.0000
s off
f 2/1/1 14/2/1 1/3/1
f 14/2/1 4/4/1 15/5/1
f 15/5/1 5/6/1 16/7/1
f 16/7/1 6/8/1 17/9/1
f 8/10/1 19/11/1 7/12/1
f 9/13/1 20/14/1 21/15/1
f 22/16/1 12/17/1 23/18/1
f 12/17/1 13/19/1 24/20/1
f 2/1/1 24/20/1 13/19/1
f 2/1/1 3/21/1 14/2/1
f 14/2/1 3/21/1 4/4/1
f 15/5/1 4/4/1 5/6/1
f 16/7/1 5/6/1 6/8/1
f 8/10/1 18/22/1 19/11/1
f 9/13/1 10/23/1 20/14/1
f 22/16/1 11/24/1 12/17/1
f 23/18/1 12/17/1 24/20/1
f 2/1/1 1/3/1 24/20/1
f 19/11/1 17/9/1 7/12/1
f 6/8/1 7/12/1 17/9/1
f 8/10/1 9/13/1 18/22/1
f 21/15/1 18/22/1 9/13/1
f 10/23/1 11/24/1 22/16/1
f 20/14/1 10/23/1 22/16/1
