# Blender v2.83.5 OBJ File: 'SpaceStation_Interior_V03.blend1'
# www.blender.org
mtllib SpaceStation_Interior_V03.mtl
o Plane
v 3.451577 -2.250000 4.500000
v 3.451576 -2.250000 -4.500000
v -5.548422 -2.250000 4.500000
v -5.548424 -2.250000 -4.499999
v 3.451576 2.250000 -4.500000
v 3.451576 2.250000 4.500000
v -5.548424 2.250000 -4.499999
v -5.548422 2.250000 4.500000
v 3.451577 -1.800000 3.600000
v 3.451576 -1.800000 -3.600000
v 3.451576 1.800000 3.600000
v 3.451576 1.800000 -3.600000
v 3.901578 -1.800000 3.600000
v 3.901577 -1.800000 -3.600000
v 3.901577 1.800000 3.600000
v 3.901576 1.800000 -3.600000
v -5.616942 -0.716182 1.399481
v -4.507037 -0.716182 1.399481
v -5.616942 -0.716182 -1.399481
v -4.507037 -0.716182 -1.399481
v -5.616942 -2.272901 2.935338
v -4.507037 -2.272901 2.935338
v -5.616942 -2.272901 -2.935338
v -4.507037 -2.272901 -2.935338
v -4.507037 -0.318376 1.399481
v -4.507037 -0.318376 -1.399481
v -4.507037 -1.888443 2.935338
v -4.507037 -1.888443 -2.935338
v 3.463917 0.115060 -4.107378
v 3.463917 -0.060935 -4.107378
v 3.463917 0.115060 -3.946053
v 3.463917 -0.060935 -3.946053
v 3.199848 0.115060 -4.107378
v 3.199848 -0.060935 -4.107378
v 3.199848 0.115060 -3.946053
v 3.199848 -0.060935 -3.946053
v 3.463917 0.112507 3.893465
v 3.463917 -0.056641 3.893465
v 3.463917 0.112507 4.050421
v 3.463917 -0.056641 4.050421
v 3.199848 0.112507 3.893465
v 3.199848 -0.056641 3.893465
v 3.199848 0.112507 4.050421
v 3.199848 -0.056641 4.050421
vt 0.000000 0.000000
vt 0.416667 0.443991
vt 0.000000 0.443991
vt 0.416667 0.443991
vt 0.000000 0.887982
vt 0.000000 0.443991
vt 0.625000 0.000000
vt 0.437500 0.044399
vt 0.416667 0.000000
vt 0.833333 0.443991
vt 0.625000 0.000000
vt 0.833333 0.000000
vt 0.833333 0.887982
vt 0.625000 0.443991
vt 0.625000 0.887982
vt 0.416667 0.443991
vt 0.625000 0.443991
vt 0.994588 0.782886
vt 0.973755 0.960483
vt 0.973755 0.782887
vt 0.437500 0.399592
vt 0.625000 0.443991
vt 0.604167 0.044399
vt 0.604167 0.399592
vt 0.995280 0.994873
vt 0.974447 0.639680
vt 0.995280 0.639680
vt 0.995095 0.960483
vt 0.974262 0.782886
vt 0.995095 0.782886
vt 0.974040 0.639192
vt 0.994873 0.994385
vt 0.974040 0.994385
vt 0.994974 0.344481
vt 0.838360 0.010712
vt 0.994974 0.010712
vt 0.416667 0.000000
vt 0.416667 0.887982
vt 0.625000 0.887982
vt 0.416667 0.887982
vt 0.994588 0.960483
vt 0.974447 0.994873
vt 0.974262 0.960483
vt 0.994873 0.639192
vt 0.838360 0.344481
vt 0.876938 0.784049
vt 0.928322 0.645970
vt 0.928322 0.784049
vt 0.876891 0.722832
vt 0.928276 0.646035
vt 0.928276 0.722832
vt 0.928267 0.707671
vt 0.876883 0.784468
vt 0.876883 0.707671
vt 0.905404 0.430960
vt 0.923820 0.430960
vt 0.851132 0.355193
vt 0.905404 0.569040
vt 0.833333 0.644807
vt 0.851132 0.644807
vt 0.923820 0.569040
vt 0.901891 0.982003
vt 0.893744 0.995030
vt 0.893744 0.982003
vt 0.947024 0.982003
vt 0.954493 0.990685
vt 0.947024 0.990685
vt 0.932491 0.995030
vt 0.925022 0.982003
vt 0.932491 0.982003
vt 0.925022 0.995030
vt 0.917553 0.982003
vt 0.925022 0.982003
vt 0.893744 0.982003
vt 0.885596 0.995030
vt 0.885596 0.982003
vt 0.917553 0.982003
vt 0.909722 0.995030
vt 0.909722 0.982003
vt 0.961759 0.990348
vt 0.954493 0.982003
vt 0.961759 0.982003
vt 0.939757 0.995030
vt 0.932491 0.982003
vt 0.939757 0.982003
vt 0.947024 0.995030
vt 0.939757 0.982003
vt 0.947024 0.982003
vt 0.909722 0.982003
vt 0.901891 0.995030
vt 0.901891 0.982003
vt 0.876938 0.645970
vt 0.876891 0.646035
vt 0.928267 0.784468
vt 0.833333 0.355193
vt 0.901891 0.995030
vt 0.954493 0.982003
vt 0.925022 0.995030
vt 0.917553 0.995030
vt 0.893744 0.995030
vt 0.917553 0.995030
vt 0.954493 0.990348
vt 0.932491 0.995030
vt 0.939757 0.995030
vt 0.909722 0.995030
vn 0.0000 1.0000 0.0000
vn 0.0000 -1.0000 0.0000
vn -1.0000 0.0000 0.0000
vn 0.0000 0.0000 -1.0000
vn 1.0000 0.0000 -0.0000
vn 0.0000 0.0000 1.0000
vn 0.0000 0.7023 -0.7119
vn 0.0000 0.7023 0.7119
usemtl Material
s off
f 2/1/1 3/2/1 1/3/1
f 6/4/2 7/5/2 5/6/2
f 2/7/3 12/8/3 5/9/3
f 3/10/4 6/11/4 1/12/4
f 4/13/5 8/14/5 3/10/5
f 2/15/6 7/16/6 4/17/6
f 9/18/4 15/19/4 13/20/4
f 5/9/3 11/21/3 6/4/3
f 1/22/3 10/23/3 2/7/3
f 6/4/3 9/24/3 1/22/3
f 9/25/1 14/26/1 10/27/1
f 10/28/6 16/29/6 12/30/6
f 12/31/2 15/32/2 11/33/2
f 13/34/3 16/35/3 14/36/3
f 2/1/1 4/37/1 3/2/1
f 6/4/2 8/38/2 7/5/2
f 2/7/3 10/23/3 12/8/3
f 3/10/4 8/14/4 6/11/4
f 4/13/5 7/39/5 8/14/5
f 2/15/6 5/40/6 7/16/6
f 9/18/4 11/41/4 15/19/4
f 5/9/3 12/8/3 11/21/3
f 1/22/3 9/24/3 10/23/3
f 6/4/3 11/21/3 9/24/3
f 9/25/1 13/42/1 14/26/1
f 10/28/6 14/43/6 16/29/6
f 12/31/2 16/44/2 15/32/2
f 13/34/3 15/45/3 16/35/3
f 18/46/1 19/47/1 17/48/1
f 20/49/7 23/50/7 19/51/7
f 17/52/8 22/53/8 18/54/8
f 18/55/5 25/56/5 27/57/5
f 20/58/5 24/59/5 28/60/5
f 18/55/5 20/58/5 26/61/5
f 31/62/6 36/63/6 32/64/6
f 35/65/3 34/66/3 36/67/3
f 33/68/1 31/69/1 29/70/1
f 30/71/2 36/72/2 34/73/2
f 33/74/4 30/75/4 34/76/4
f 39/77/6 44/78/6 40/79/6
f 43/80/3 42/81/3 44/82/3
f 41/83/1 39/84/1 37/85/1
f 38/86/2 44/87/2 42/88/2
f 41/89/4 38/90/4 42/91/4
f 18/46/1 20/92/1 19/47/1
f 20/49/7 24/93/7 23/50/7
f 17/52/8 21/94/8 22/53/8
f 18/55/5 27/57/5 22/95/5
f 20/58/5 28/60/5 26/61/5
f 18/55/5 26/61/5 25/56/5
f 31/62/6 35/96/6 36/63/6
f 35/65/3 33/97/3 34/66/3
f 33/68/1 35/98/1 31/69/1
f 30/71/2 32/99/2 36/72/2
f 33/74/4 29/100/4 30/75/4
f 39/77/6 43/101/6 44/78/6
f 43/80/3 41/102/3 42/81/3
f 41/83/1 43/103/1 39/84/1
f 38/86/2 40/104/2 44/87/2
f 41/89/4 37/105/4 38/90/4
